<svg version="1" xmlns="http://www.w3.org/2000/svg" width="666.667" height="666.667" viewBox="0 0 500.000000 500.000000"><path d="M41.4 1.9c-2.3 1-5.4 3.6-7 5.7l-2.9 3.7-.3 237.5-.2 237.5 2.1 4.4c5.1 10.5 20.6 12.7 28.6 4.1 5.4-5.8 5.1 2.3 5.1-153.9 0-105.7.3-145.2 1.1-146.7.6-1.2 2.6-3.3 4.5-4.7 2.8-2.1 4.4-2.5 10-2.5 7.8 0 11.4 1.6 14.8 6.2l2.3 3.3V320c.1 133.1-.2 125.3 5.3 131.3 3 3.2 10.5 5.7 14.8 5 7.5-1.2 13.7-6.6 14.9-12.9.4-1.6.7-22.2.8-45.8l.2-42.8 3.5-2.9c3.1-2.6 4.1-2.9 11.1-2.9 6.2 0 8.2.4 10.9 2.3 6.4 4.3 6.9 6.6 7 31.1.1 19.7.4 22.4 2.1 25.8 6.1 11.9 23.9 12.5 31.1 1l2.3-3.7.5-75.2.5-75.2 3.4-3.1c6.3-5.5 14.7-6.2 21.9-1.8 7 4.3 6.7 1.4 6.7 60.2 0 59.6-.1 58.2 7.3 63.1 8.8 5.7 19.5 2.9 24.1-6.3 1.6-3.2 1.8-6.4 1.8-24.3.1-13.3.5-21.4 1.2-22.7 3.1-5.8 11.8-9.2 19.4-7.8 5 .9 11.7 7.2 12.3 11.6 1.6 10.3 13 16.7 22.8 12.6 3.8-1.6 7.3-5 8.8-8.6.7-1.5 1.1-13.1 1.2-29.1.2-24.3.3-26.8 2.1-29.5 4.3-6.6 7.4-8.2 16-8.2 5.5 0 7.7.4 10.3 2.1 4.1 2.8 4.3 3.7 4.7 16 .1 5.6.7 11.3 1.3 12.7 3.7 8.3 13.6 12.5 22.3 9.4 4.9-1.7 7.6-4.1 10.1-8.9 2-3.8 2.1-5.5 2.1-43.6 0-39.1 0-39.7-2.2-44.3-5-10.2-19.6-13-27.9-5.3-3.3 3.1-5.4 7.4-5.8 12.1-.5 4.6-2.2 6.8-7.2 9.2-7.9 3.7-17.3 1.1-22.6-6.4l-3-4.2-.2-17.7c-.1-10.3-.6-18.9-1.2-20.3-2.7-6-8.8-10-15.4-10-4.7 0-11 3.5-13.8 7.6l-2.5 3.7v45.6c0 43.9-.1 45.7-2 48.3-3.1 4.1-9.1 7.1-14.4 7.1-5.4 0-9.4-1.9-13.5-6.2l-2.9-3v-63.8c.1-58.4-.1-64.1-1.7-67.8-2.1-4.9-4.7-7.3-9.7-9-5-1.7-9.9-1-14.6 2.1-6.8 4.5-7 5.9-7.1 41.5-.1 34.9-.1 34.6-6.8 38.7-7.3 4.5-16.4 3.5-22.3-2.4l-3.5-3.5v-52.7c0-32.3-.4-54.1-1-56.3-1.1-4-4.9-8.3-9.2-10.5-8.2-4.2-19.7-.3-23.8 8.2-2 3.9-2 6.5-2 105.7 0 77.8-.3 102.3-1.2 104.4-2.6 6-9.3 10.3-16.3 10.5-4.7.1-12.7-3.8-14.4-7-.5-1-.9-54.4-.9-125.5l-.1-123.8-2.5-4.4c-6.5-11-23.1-11.2-30.3-.4l-2.7 4.2-.1 42.4V138l-2.8 3.5c-3.6 4.6-7.4 6.4-13.4 6.6-6 .2-9.1-1-13.1-5.1-2.8-2.8-3.2-3.8-3.2-8.8 0-3.1-.1-31.8-.3-63.7l-.2-58-2.3-3.7C59.5 1.3 49.4-1.8 41.4 1.9zM439.5 232.4c-12.5 5.6-14.5 22.1-3.7 30.4 5.2 3.9 14.4 4.4 19.9.9 11.4-7.2 11.6-22.8.4-29.8-5-3.2-11.4-3.8-16.6-1.5z"/></svg>